<?xml version="1.0" ?>
<mxfile host="app.diagrams.net" type="device">
  <diagram id="16547a66-9b74-428d-99dc-47d8da54b296" name="Test Infrastructure">
    <mxGraphModel dx="1434" dy="796" grid="1" gridSize="10" guides="1" tooltips="1" connect="1" arrows="1" fold="1" page="1" pageScale="1" pageWidth="1600" pageHeight="1200" math="0" shadow="0">
      <root>
        <mxCell id="0"/>
        <mxCell id="1" parent="0"/>
        <mxCell id="2" value="Azure" style="swimlane;fontStyle=1;align=center;verticalAlign=top;childLayout=stackLayout;horizontal=1;startSize=26;horizontalStack=0;resizeParent=1;resizeParentMax=0;resizeLast=0;collapsible=1;marginBottom=0;fillColor=#4A90E2;strokeColor=#000000;fontSize=14;fontColor=#000000;" vertex="1" parent="1">
          <mxGeometry as="geometry" x="50" y="50" width="600" height="400"/>
        </mxCell>
        <mxCell id="3" value="AZURE
Microsoft.Network/virtualNetworks
hub-vn..." style="rounded=1;whiteSpace=wrap;html=1;fillColor=#4A90E2;strokeColor=#000000;" vertex="1" parent="2">
          <mxGeometry as="geometry" x="20" y="40" width="160" height="80"/>
        </mxCell>
        <mxCell id="4" value="AZURE
Microsoft.Network/virtualNetworks
spoke-vn..." style="rounded=1;whiteSpace=wrap;html=1;fillColor=#4A90E2;strokeColor=#000000;" vertex="1" parent="2">
          <mxGeometry as="geometry" x="20" y="160" width="160" height="80"/>
        </mxCell>
        <mxCell id="5" value="F5 XC" style="swimlane;fontStyle=1;align=center;verticalAlign=top;childLayout=stackLayout;horizontal=1;startSize=26;horizontalStack=0;resizeParent=1;resizeParentMax=0;resizeLast=0;collapsible=1;marginBottom=0;fillColor=#50C878;strokeColor=#000000;fontSize=14;fontColor=#000000;" vertex="1" parent="1">
          <mxGeometry as="geometry" x="750" y="50" width="600" height="400"/>
        </mxCell>
        <mxCell id="6" value="F5XC
volterra_azure_vnet_site
azure-site" style="rounded=1;whiteSpace=wrap;html=1;fillColor=#50C878;strokeColor=#000000;" vertex="1" parent="5">
          <mxGeometry as="geometry" x="20" y="40" width="160" height="80"/>
        </mxCell>
        <mxCell id="8" value="VNet Peering" style="endArrow=classic;html=1;strokeColor=#95A5A6;strokeWidth=1;" edge="1" parent="1" source="3" target="4">
          <mxGeometry as="geometry" relative="1"/>
        </mxCell>
      </root>
    </mxGraphModel>
  </diagram>
</mxfile>
